<?xml version="1.0" encoding="UTF-8" standalone="no"?>
<!-- Created with Inkscape (http://www.inkscape.org/) -->

<svg
   xmlns:dc="http://purl.org/dc/elements/1.1/"
   xmlns:cc="http://creativecommons.org/ns#"
   xmlns:rdf="http://www.w3.org/1999/02/22-rdf-syntax-ns#"
   xmlns:svg="http://www.w3.org/2000/svg"
   xmlns="http://www.w3.org/2000/svg"
   xmlns:sodipodi="http://sodipodi.sourceforge.net/DTD/sodipodi-0.dtd"
   xmlns:inkscape="http://www.inkscape.org/namespaces/inkscape"
   width="744.09448819"
   height="1052.3622047"
   id="svg2"
   version="1.1"
   inkscape:version="0.48.2 r9819"
   sodipodi:docname="New document 1">
  <defs
     id="defs4" />
  <sodipodi:namedview
     id="base"
     pagecolor="#ffffff"
     bordercolor="#666666"
     borderopacity="1.0"
     inkscape:pageopacity="0.0"
     inkscape:pageshadow="2"
     inkscape:zoom="2.8"
     inkscape:cx="243.30673"
     inkscape:cy="566.87526"
     inkscape:document-units="px"
     inkscape:current-layer="layer2"
     showgrid="false"
     inkscape:window-width="2048"
     inkscape:window-height="1124"
     inkscape:window-x="1911"
     inkscape:window-y="-9"
     inkscape:window-maximized="1" />
  <metadata
     id="metadata7">
    <rdf:RDF>
      <cc:Work
         rdf:about="">
        <dc:format>image/svg+xml</dc:format>
        <dc:type
           rdf:resource="http://purl.org/dc/dcmitype/StillImage" />
        <dc:title></dc:title>
      </cc:Work>
    </rdf:RDF>
  </metadata>
  <g
     inkscape:groupmode="layer"
     id="layer8"
     inkscape:label="BG">
    <rect
       style="display:inline;fill:#4654ff;fill-opacity:1;stroke:#000000;stroke-width:1.03299999000000000;stroke-miterlimit:4;stroke-opacity:1;stroke-dasharray:none"
       id="rect3854"
       width="393.21429"
       height="302.85715"
       x="21.071428"
       y="336.64789"
       ry="24.935869" />
  </g>
  <g
     inkscape:groupmode="layer"
     id="layer7"
     inkscape:label="FootR"
     style="display:inline">
    <path
       style="fill:#4654ff;fill-opacity:1;stroke:#ffffff;stroke-width:4;stroke-linecap:butt;stroke-linejoin:miter;stroke-opacity:1;display:inline;stroke-miterlimit:4;stroke-dasharray:none"
       d="m 204.64286,571.29075 c 0.051,3.67473 3.82479,6.41712 4.64285,10 1.85516,8.12508 5.29388,20.31463 1.07144,27.5 -4.45267,7.57714 -23.2801,3.07102 -22.14287,11.78571 1.06114,8.13153 16.83971,2.40349 25,3.21429 19.55953,1.94342 36.41824,-1.10609 56.07143,-1.42857 4.93078,-0.0809 13.89228,-0.62682 14.64286,-7.5 1.24202,-11.37335 -25.75828,-2.79406 -37.14285,-3.92857 -10.78059,-1.07432 -13.28761,0.45911 -16.07143,-5 -3.70171,-7.25911 -6.68392,-16.31315 -5,-24.28571 1.39278,-6.59413 12.54052,-21.81001 8.92857,-27.50001 -5.96907,-9.40323 -30.24654,-0.61035 -30,17.14286 z"
       id="path3850"
       inkscape:connector-curvature="0"
       sodipodi:nodetypes="ssssssssssss" />
  </g>
  <g
     inkscape:groupmode="layer"
     id="layer6"
     inkscape:label="FootL"
     style="display:inline">
    <path
       style="fill:#4654ff;fill-opacity:1;stroke:#ffffff;stroke-width:4;stroke-linecap:butt;stroke-linejoin:miter;stroke-opacity:1;stroke-miterlimit:4;stroke-dasharray:none"
       d="m 153.57143,568.43361 c 1.07143,2.5 8.13904,11.24918 8.92857,17.85714 1.07237,8.97516 0.9063,20.68272 -6.07143,26.42857 -11.2178,9.23735 -25.47961,-3.40136 -33.57143,4.28572 -14.30487,13.58937 45.35715,9.64286 47.85715,9.64286 29.09019,5.60938 50.6006,-7.11947 33.92857,-13.92858 -9.57714,-1.17327 -20.32677,6.09599 -27.5,-0.35714 -6.38214,-5.74146 -2.47117,-18.06653 1.42857,-25.71428 2.99837,-5.88009 17.12574,-6.14093 15.35714,-12.5 -3.64055,-13.08973 -42.97866,-11.83117 -40.35714,-5.71429 z"
       id="path3848"
       inkscape:connector-curvature="0"
       sodipodi:nodetypes="ssssccssss" />
  </g>
  <g
     inkscape:groupmode="layer"
     id="layer5"
     inkscape:label="Body"
     style="display:inline">
    <path
       style="fill:#4654ff;stroke:#ffffff;stroke-width:4;stroke-linecap:butt;stroke-linejoin:miter;stroke-opacity:1;fill-opacity:1;stroke-miterlimit:4;stroke-dasharray:none"
       d="m 298.21429,424.86218 c -35.44769,-3.09455 -59.66723,-0.60433 -87.5,8.57143 -33.46711,11.03326 -79.99107,42.47604 -90.71429,54.28571 -16.11022,17.74246 -27.160843,47.55723 -17.85714,69.64286 3.51972,8.3553 14.63137,12.06313 23.57143,13.57143 61.96311,10.45394 80.10232,-6.0709 117.85714,-18.57143 28.46025,-9.42312 73.92857,-37.85714 79.64286,-41.78571 5.71428,-3.92857 22.1011,-17.16309 21.07142,-32.14286 -0.80098,-11.65274 -24.60315,-51.69727 -46.07142,-53.57143 z"
       id="path3845"
       inkscape:connector-curvature="0"
       sodipodi:nodetypes="sssssssss" />
  </g>
  <g
     inkscape:label="Face"
     inkscape:groupmode="layer"
     id="layer1"
     style="display:inline">
    <path
       sodipodi:type="arc"
       style="fill:#4654ff;fill-opacity:1;stroke:#ffffff;stroke-width:6.67722291000000020;stroke-miterlimit:4;stroke-opacity:1;stroke-dasharray:none"
       id="path2985"
       sodipodi:cx="283.92856"
       sodipodi:cy="349.50504"
       sodipodi:rx="123.21429"
       sodipodi:ry="75"
       d="m 407.14285,349.50504 a 123.21429,75 0 1 1 -246.42858,0 123.21429,75 0 1 1 246.42858,0 z"
       transform="matrix(0.58635413,0.1226844,-0.1226844,0.58635413,174.78898,179.51455)" />
  </g>
  <g
     inkscape:groupmode="layer"
     id="layer4"
     inkscape:label="Wings"
     style="display:inline">
    <path
       style="fill:#4654ff;stroke:#ffffff;stroke-width:4;stroke-linecap:butt;stroke-linejoin:miter;stroke-opacity:1;fill-opacity:1;stroke-miterlimit:4;stroke-dasharray:none"
       d="m 287.67857,479.1479 c -1.38868,-32.24761 -77.65644,-41.51782 -87.85714,-40.71429 -17.28261,1.36139 -67.41849,20.34005 -115.000001,64.10714 -16.785783,15.44013 -46.188341,56.55623 -34.464286,59.10715 17.531365,3.81448 121.348297,-24.51446 149.999997,-32.5 32.30964,-9.00505 88.76448,-16.48998 87.32143,-50 z"
       id="path3843"
       inkscape:connector-curvature="0"
       sodipodi:nodetypes="ssssss" />
  </g>
  <g
     inkscape:groupmode="layer"
     id="layer2"
     inkscape:label="FacialFeatures"
     style="display:inline">
    <path
       sodipodi:type="arc"
       style="fill:#4654ff;fill-opacity:1;stroke:#ffffff;stroke-width:7.13049889;stroke-miterlimit:4;stroke-opacity:1;stroke-dasharray:none"
       id="path2990"
       sodipodi:cx="141.78572"
       sodipodi:cy="214.86218"
       sodipodi:rx="39.642857"
       sodipodi:ry="39.642857"
       d="m 181.42858,214.86218 a 39.642857,39.642857 0 1 1 -79.28572,0 39.642857,39.642857 0 1 1 79.28572,0 z"
       transform="matrix(0.60030108,0,0,0.52421694,181.46825,291.21238)" />
    <path
       sodipodi:type="arc"
       style="fill:#4654ff;fill-opacity:1;stroke:#ffffff;stroke-width:3.40313975;stroke-miterlimit:4;stroke-opacity:1;stroke-dasharray:none"
       id="path2992"
       sodipodi:cx="140.71428"
       sodipodi:cy="212.00504"
       sodipodi:rx="30.357143"
       sodipodi:ry="30.357143"
       d="m 171.07142,212.00504 a 30.357143,30.357143 0 1 1 -60.71428,0 30.357143,30.357143 0 1 1 60.71428,0 z"
       transform="matrix(0.63689195,0,0,0.54229383,177.01617,288.78414)" />
    <path
       style="fill:#4654ff;stroke:#ffffff;stroke-width:4;stroke-linecap:butt;stroke-linejoin:miter;stroke-opacity:1;display:inline;fill-opacity:1;stroke-miterlimit:4;stroke-dasharray:none"
       d="m 308.97628,437.64167 c -1.36365,6.05083 -27.32759,20.90976 -27.32759,20.90976 0,0 1.79491,-31.28795 4.4587,-34.31754 3.57575,-4.06678 10.81746,-0.7768 15.24592,2.07501 3.67402,2.36596 8.65359,6.75961 7.62297,11.33277 z"
       id="path3022"
       inkscape:connector-curvature="0"
       sodipodi:nodetypes="scsss" />
    <path
       sodipodi:type="arc"
       style="fill:#4654ff;fill-opacity:1;stroke:#ffffff;stroke-width:7.47376394;stroke-miterlimit:4;stroke-opacity:1;stroke-dasharray:none"
       id="path2990-9"
       sodipodi:cx="141.78572"
       sodipodi:cy="214.86218"
       sodipodi:rx="39.642857"
       sodipodi:ry="39.642857"
       d="m 181.42858,214.86218 a 39.642857,39.642857 0 1 1 -79.28572,0 39.642857,39.642857 0 1 1 79.28572,0 z"
       transform="matrix(0.55109913,0,0,0.51977037,260.06826,313.02999)" />
    <path
       sodipodi:type="arc"
       style="fill:#4654ff;fill-opacity:1;stroke:#ffffff;stroke-width:3.56696831;stroke-miterlimit:4;stroke-opacity:1;stroke-dasharray:none"
       id="path2992-4"
       sodipodi:cx="140.71428"
       sodipodi:cy="212.00504"
       sodipodi:rx="30.357143"
       sodipodi:ry="30.357143"
       d="m 171.07142,212.00504 a 30.357143,30.357143 0 1 1 -60.71428,0 30.357143,30.357143 0 1 1 60.71428,0 z"
       transform="matrix(0.58469094,0,0,0.53769392,255.98108,310.62234)" />
  </g>
</svg>
